<?xml version="1.0" ?><!DOCTYPE svg  PUBLIC '-//W3C//DTD SVG 1.1//EN'  'http://www.w3.org/Graphics/SVG/1.1/DTD/svg11.dtd'><svg enable-background="new 0 0 91 91" height="91px" id="Layer_1" version="1.1" viewBox="0 0 91 91" width="91px" xml:space="preserve" xmlns="http://www.w3.org/2000/svg" xmlns:xlink="http://www.w3.org/1999/xlink"><g><g><path d="M24.295,16.758H9.541v70.986h49.873c3.691,0,6.711-3.017,6.711-6.713v-7.504" fill="#9ABFDA"/><path d="M59.414,90.258H9.541c-1.389,0-2.514-1.125-2.514-2.514V16.758c0-1.388,1.125-2.513,2.514-2.513h14.754    c1.388,0,2.513,1.125,2.513,2.513s-1.125,2.513-2.513,2.513H12.053v65.962h47.361c2.314,0,4.198-1.885,4.198-4.201v-7.504    c0-1.389,1.125-2.514,2.513-2.514s2.513,1.125,2.513,2.514v7.504C68.638,86.119,64.5,90.258,59.414,90.258z" fill="#454B53"/></g><g><path d="M60.998,15.911V2.568H25.324v70.986h49.874c3.688,0,6.712-3.021,6.712-6.713v-44.22H67.707    C64.018,22.622,60.998,19.602,60.998,15.911z" fill="#E0F1F8"/><path d="M75.198,76.067H25.324c-1.389,0-2.514-1.125-2.514-2.513V2.568c0-1.388,1.125-2.513,2.514-2.513h35.674    c1.387,0,2.512,1.125,2.512,2.513v13.343c0,2.315,1.883,4.198,4.197,4.198H81.91c1.389,0,2.514,1.125,2.514,2.513v44.22    C84.424,71.929,80.285,76.067,75.198,76.067z M27.836,71.042h47.362c2.315,0,4.2-1.884,4.2-4.2V25.134H67.707    c-5.086,0-9.223-4.138-9.223-9.223V5.081H27.836V71.042z" fill="#454B53"/></g><path d="M68.045,41.708H39.606c-1.388,0-2.513-1.125-2.513-2.513s1.125-2.513,2.513-2.513h28.438   c1.389,0,2.514,1.125,2.514,2.513S69.434,41.708,68.045,41.708z" fill="#454B53"/><path d="M48.131,53.25h-8.524c-1.388,0-2.513-1.125-2.513-2.512c0-1.389,1.125-2.514,2.513-2.514h8.524   c1.387,0,2.512,1.125,2.512,2.514C50.643,52.125,49.518,53.25,48.131,53.25z" fill="#454B53"/><path d="M61.648,53.25h-3.5c-1.387,0-2.512-1.125-2.512-2.512c0-1.389,1.125-2.514,2.512-2.514h3.5   c1.389,0,2.514,1.125,2.514,2.514C64.162,52.125,63.037,53.25,61.648,53.25z" fill="#454B53"/><g><path d="M67.71,22.622c-3.693,0-6.71-3.018-6.71-6.708V2.57l20.91,20.051H67.71z" fill="#7BA7C9"/><path d="M81.93,25.134c-0.008,0-0.014-0.001-0.02,0h-14.2c-5.085,0-9.224-4.137-9.224-9.221V2.57    c0-1.007,0.602-1.916,1.527-2.311c0.927-0.396,1.998-0.199,2.725,0.498l20.73,19.878c0.592,0.459,0.975,1.178,0.975,1.986    C84.443,24.009,83.318,25.134,81.93,25.134z M63.512,8.46v7.453c0,2.313,1.883,4.195,4.198,4.195h7.95L63.512,8.46z" fill="#454B53"/></g></g></svg>