<?xml version="1.0" ?><svg id="Layer_1" style="enable-background:new 0 0 100 100;" version="1.1" viewBox="0 0 100 100" xml:space="preserve" xmlns="http://www.w3.org/2000/svg" xmlns:xlink="http://www.w3.org/1999/xlink"><g><path d="M51.3,55.3c-0.4,0-0.7-0.1-1-0.4c-0.4-0.4-0.5-1-0.4-1.5l3.3-10c0.2-0.5,0.4-0.9,0.8-1.2L82.3,14c1.2-1.2,3.2-1.2,4.4,0   l4.5,4.5c1.2,1.2,1.2,3.2,0,4.4L63,51.2c-0.3,0.3-0.8,0.6-1.2,0.8h0l-10,3.3C51.6,55.3,51.5,55.3,51.3,55.3z M84.5,15   c-0.3,0-0.6,0.1-0.8,0.3L55.4,43.6c-0.1,0.1-0.2,0.3-0.3,0.4l-3,8.9l8.9-3c0.2-0.1,0.3-0.1,0.4-0.3l28.3-28.3   c0.4-0.4,0.4-1.2,0-1.6l-4.5-4.5C85.1,15.1,84.8,15,84.5,15z M61.4,51L61.4,51L61.4,51z"/></g><g><path d="M62.2,51.5c-0.3,0-0.5-0.1-0.7-0.3L54,43.7c-0.4-0.4-0.4-1,0-1.4s1-0.4,1.4,0l7.5,7.5c0.4,0.4,0.4,1,0,1.4   C62.7,51.4,62.5,51.5,62.2,51.5z"/></g><g><path d="M77.7,81.1H22.3c-3.2,0-5.9-2.8-5.9-6.3V25.1c0-3.4,2.6-6.3,5.9-6.3H64c0.6,0,1,0.4,1,1s-0.4,1-1,1H22.3   c-2.1,0-3.9,1.9-3.9,4.3v49.8c0,2.3,1.7,4.3,3.9,4.3h55.4c2.1,0,3.9-1.9,3.9-4.3V45c0-0.6,0.4-1,1-1s1,0.4,1,1v29.9   C83.6,78.3,80.9,81.1,77.7,81.1z"/></g></svg>