<?xml version="1.0" ?><!DOCTYPE svg  PUBLIC '-//W3C//DTD SVG 1.1//EN'  'http://www.w3.org/Graphics/SVG/1.1/DTD/svg11.dtd'><svg enable-background="new 0 0 91 91" height="91px" id="Layer_1" version="1.1" viewBox="0 0 91 91" width="91px" xml:space="preserve" xmlns="http://www.w3.org/2000/svg" xmlns:xlink="http://www.w3.org/1999/xlink"><g><g><g><g><path d="M35.658,80.078L12.134,56.557L61.649,7.043c4.031-4.036,10.578-4.036,14.611,0l8.908,8.913      c4.037,4.034,4.037,10.577,0,14.609L35.658,80.078z" fill="#E0F1F8"/><path d="M35.658,82.592c-0.643,0-1.286-0.246-1.776-0.736L10.357,58.334c-0.472-0.472-0.736-1.111-0.736-1.777      s0.265-1.306,0.736-1.777L59.873,5.266c2.423-2.426,5.648-3.762,9.081-3.762s6.658,1.336,9.084,3.763l8.908,8.913      c2.427,2.424,3.764,5.65,3.763,9.083c0,3.431-1.337,6.656-3.765,9.08l-49.51,49.513C36.944,82.346,36.301,82.592,35.658,82.592z       M15.688,56.557l19.971,19.969l47.734-47.737c1.478-1.477,2.291-3.438,2.292-5.526c0-2.089-0.813-4.052-2.291-5.529l-8.91-8.914      c-1.476-1.477-3.439-2.291-5.529-2.291c-2.089,0-4.052,0.813-5.527,2.29L15.688,56.557z" fill="#454B53"/></g><path d="M79.912,38.34c-0.643,0-1.286-0.246-1.776-0.736L54.607,14.082c-0.981-0.981-0.981-2.572,0-3.553     c0.98-0.98,2.572-0.981,3.553,0l23.528,23.522c0.981,0.981,0.981,2.572,0,3.553C81.198,38.095,80.556,38.34,79.912,38.34z" fill="#454B53"/><g><polygon fill="#9ABFDA" points="35.336,79.759 3.543,88.354 12.411,56.834     "/><path d="M3.543,90.867c-0.662,0-1.308-0.263-1.786-0.746c-0.636-0.643-0.877-1.577-0.633-2.447l8.868-31.521      c0.242-0.858,0.921-1.524,1.784-1.75c0.863-0.225,1.781,0.023,2.411,0.653l22.925,22.926c0.634,0.634,0.883,1.558,0.651,2.424      s-0.906,1.544-1.772,1.777L4.198,90.779C3.982,90.838,3.762,90.867,3.543,90.867z M13.668,61.645L7.16,84.773l23.33-6.307      L13.668,61.645z" fill="#454B53"/></g><path d="M35.6,59.129c-0.643,0-1.286-0.246-1.776-0.736c-0.981-0.981-0.981-2.572,0-3.553l22.881-22.883     c0.98-0.981,2.572-0.981,3.553,0c0.981,0.981,0.981,2.572,0,3.553L37.376,58.393C36.886,58.883,36.242,59.129,35.6,59.129z" fill="#454B53"/></g></g></g></svg>