<?xml version="1.0" encoding="UTF-8" standalone="no"?>
<svg
   enable-background="new 0 0 91 91"
   height="91px"
   id="Layer_1"
   version="1.1"
   viewBox="0 0 91 91"
   width="91px"
   xml:space="preserve"
   sodipodi:docname="file_search.svg"
   inkscape:version="1.1.1 (3bf5ae0d25, 2021-09-20)"
   xmlns:inkscape="http://www.inkscape.org/namespaces/inkscape"
   xmlns:sodipodi="http://sodipodi.sourceforge.net/DTD/sodipodi-0.dtd"
   xmlns="http://www.w3.org/2000/svg"
   xmlns:svg="http://www.w3.org/2000/svg"><defs
     id="defs31" /><sodipodi:namedview
     id="namedview29"
     pagecolor="#ffffff"
     bordercolor="#666666"
     borderopacity="1.0"
     inkscape:pageshadow="2"
     inkscape:pageopacity="0.0"
     inkscape:pagecheckerboard="0"
     showgrid="false"
     showguides="true"
     inkscape:lockguides="false"
     inkscape:guide-bbox="true"
     inkscape:zoom="4.8953547"
     inkscape:cx="54.439365"
     inkscape:cy="67.104433"
     inkscape:window-width="1920"
     inkscape:window-height="1015"
     inkscape:window-x="0"
     inkscape:window-y="0"
     inkscape:window-maximized="1"
     inkscape:current-layer="Layer_1" /><g
     id="g848"
     transform="matrix(1.1943254,0,0,1.1932844,-7.9049765,-8.6922791)"><g
       id="g12"
       transform="translate(-6.5440545,7.5656877)"><path
         d="M 60.998,15.911 V 2.568 H 25.324 v 70.986 h 49.874 c 3.688,0 6.712,-3.021 6.712,-6.713 V 22.621 H 67.707 c -3.689,0.001 -6.709,-3.019 -6.709,-6.71 z"
         fill="#e0f1f8"
         id="path8" /><path
         d="M 75.198,76.067 H 25.324 c -1.389,0 -2.514,-1.125 -2.514,-2.513 V 2.568 c 0,-1.388 1.125,-2.513 2.514,-2.513 h 35.674 c 1.387,0 2.512,1.125 2.512,2.513 v 13.343 c 0,2.315 1.883,4.198 4.197,4.198 H 81.91 c 1.389,0 2.514,1.125 2.514,2.513 v 44.22 c 0,5.087 -4.139,9.225 -9.226,9.225 z M 27.836,71.042 h 47.362 c 2.315,0 4.2,-1.884 4.2,-4.2 V 25.134 H 67.707 c -5.086,0 -9.223,-4.138 -9.223,-9.223 V 5.081 H 27.836 Z"
         fill="#454b53"
         id="path10" /></g><path
       d="M 45.644042,21.182745 H 27.146174 c -0.902811,0 -1.634556,-1.125 -1.634556,-2.513 0,-1.388 0.731745,-2.513 1.634556,-2.513 h 18.497217 c 0.903462,0 1.635207,1.125 1.635207,2.513 0,1.388 -0.731095,2.513 -1.634556,2.513 z"
       fill="#454b53"
       id="path14"
       style="stroke-width:0.806499" /><path
       d="m 57.883726,75.799989 h -29.6684 c -1.448002,0 -2.621635,-1.125 -2.621635,-2.513 0,-1.388 1.173633,-2.513 2.621635,-2.513 h 29.667356 c 1.449046,0 2.622678,1.125 2.622678,2.513 0,1.388 -1.172589,2.513 -2.621634,2.513 z"
       fill="#454b53"
       id="path14-3"
       style="stroke-width:1.02138" /><path
       d="m 36.614324,29.404309 h -8.524 c -1.388,0 -2.513,-1.125 -2.513,-2.512 0,-1.389 1.125,-2.514 2.513,-2.514 h 8.524 c 1.387,0 2.512,1.125 2.512,2.514 0,1.387 -1.125,2.512 -2.512,2.512 z"
       fill="#454b53"
       id="path16" /><path
       d="m 47.443348,29.394444 h -3.5 c -1.387,0 -2.512,-1.125 -2.512,-2.512 0,-1.389 1.125,-2.514 2.512,-2.514 h 3.5 c 1.389,0 2.514,1.125 2.514,2.514 0,1.387 -1.125,2.512 -2.514,2.512 z"
       fill="#454b53"
       id="path18" /><g
       id="g24"
       transform="translate(-6.5440545,7.5656877)"><path
         d="M 67.71,22.622 C 64.017,22.622 61,19.604 61,15.914 V 2.57 l 20.91,20.051 h -14.2 z"
         fill="#7ba7c9"
         id="path20" /><path
         d="m 81.93,25.134 c -0.008,0 -0.014,-0.001 -0.02,0 h -14.2 c -5.085,0 -9.224,-4.137 -9.224,-9.221 V 2.57 c 0,-1.007 0.602,-1.916 1.527,-2.311 0.927,-0.396 1.998,-0.199 2.725,0.498 l 20.73,19.878 c 0.592,0.459 0.975,1.178 0.975,1.986 0,1.388 -1.125,2.513 -2.513,2.513 z M 63.512,8.46 v 7.453 c 0,2.313 1.883,4.195 4.198,4.195 h 7.95 z"
         fill="#454b53"
         id="path22" /></g><g
       id="g19"
       transform="translate(21.679248,28.298977)"><circle
         cx="21"
         cy="20"
         fill="none"
         r="16"
         stroke="#000000"
         stroke-linecap="round"
         stroke-miterlimit="10"
         stroke-width="2"
         id="circle4"
         style="stroke:#454b53" /><line
         fill="none"
         stroke="#000000"
         stroke-miterlimit="10"
         stroke-width="4"
         x1="32.229"
         x2="45.5"
         y1="32.229"
         y2="45.5"
         id="line6"
         style="fill:#454b53;fill-opacity:1;stroke:#454b53;stroke-opacity:1" /></g></g></svg>
