<?xml version="1.0" ?><!DOCTYPE svg  PUBLIC '-//W3C//DTD SVG 1.1//EN'  'http://www.w3.org/Graphics/SVG/1.1/DTD/svg11.dtd'><svg enable-background="new 0 0 91 91" height="91px" id="Layer_1" version="1.1" viewBox="0 0 91 91" width="91px" xml:space="preserve" xmlns="http://www.w3.org/2000/svg" xmlns:xlink="http://www.w3.org/1999/xlink"><g><g><path d="M53.971,19.4V3.438H12.442v84.904h58.517c4.412,0,8.023-3.613,8.023-8.027V27.428H61.998    C57.584,27.428,53.971,23.816,53.971,19.4z" fill="#E0F1F8"/><path d="M70.959,90.855H12.442c-1.388,0-2.513-1.125-2.513-2.514V3.438c0-1.388,1.125-2.513,2.513-2.513h41.528    c1.389,0,2.514,1.125,2.514,2.513V19.4c0,3.041,2.473,5.515,5.514,5.515h16.984c1.388,0,2.513,1.125,2.513,2.513v52.887    C81.495,86.126,76.769,90.855,70.959,90.855z M14.955,85.83h56.004c3.039,0,5.511-2.475,5.511-5.516V29.94H61.998    c-5.811,0-10.539-4.729-10.539-10.541V5.951H14.955V85.83z" fill="#454B53"/></g><g><path d="M78.982,27.425L53.971,3.438V19.4c0,4.418,3.611,8.025,8.027,8.025H78.982z" fill="#9ABFDA"/><path d="M78.982,29.938H61.998c-5.812,0-10.539-4.727-10.539-10.538V3.438c0-1.007,0.601-1.916,1.526-2.311    c0.927-0.396,1.998-0.198,2.726,0.498l25.01,23.987c0.74,0.71,0.975,1.799,0.592,2.75C80.931,29.314,80.008,29.938,78.982,29.938z     M56.484,9.329V19.4c0,3.04,2.473,5.512,5.514,5.512h10.734L56.484,9.329z" fill="#454B53"/></g></g></svg>