<?xml version="1.0" encoding="UTF-8" standalone="no"?>
<svg
   version="1.1"
   width="256"
   height="256"
   viewBox="0 0 256 256"
   xml:space="preserve"
   id="svg30"
   sodipodi:docname="floppy.svg"
   inkscape:version="1.1.1 (3bf5ae0d25, 2021-09-20, custom)"
   xmlns:inkscape="http://www.inkscape.org/namespaces/inkscape"
   xmlns:sodipodi="http://sodipodi.sourceforge.net/DTD/sodipodi-0.dtd"
   xmlns="http://www.w3.org/2000/svg"
   xmlns:svg="http://www.w3.org/2000/svg"><sodipodi:namedview
   id="namedview32"
   pagecolor="#ffffff"
   bordercolor="#666666"
   borderopacity="1.0"
   inkscape:pageshadow="2"
   inkscape:pageopacity="0.0"
   inkscape:pagecheckerboard="0"
   showgrid="false"
   inkscape:zoom="1.2304688"
   inkscape:cx="-85.739679"
   inkscape:cy="214.95872"
   inkscape:window-width="1920"
   inkscape:window-height="1015"
   inkscape:window-x="0"
   inkscape:window-y="0"
   inkscape:window-maximized="1"
   inkscape:current-layer="g28" />
<desc
   id="desc2">Created with Fabric.js 1.7.22</desc>
<defs
   id="defs4">

	
	
	
	
	
	
	
	
	
	
</defs>
<g
   transform="translate(128 128) scale(0.72 0.72)"
   style=""
   id="g28">
	<polygon
   points="1,89 1,1 68.33,1 89,21.68 89,89 "
   style="fill:#5e889e;fill-rule:nonzero;stroke:none;stroke-width:1;stroke-linecap:butt;stroke-linejoin:miter;stroke-miterlimit:10;stroke-dasharray:none;fill-opacity:1.0"
   transform="matrix(3.89,0,0,3.89,-175.05,-175.05)"
   id="polygon6" /><rect
   x="-106.8194"
   y="12.564698"
   rx="0"
   ry="0"
   width="213.6777"
   height="158.59531"
   style="fill:#dfe4ea;fill-rule:nonzero;stroke:none;stroke-width:3.89;stroke-linecap:butt;stroke-linejoin:miter;stroke-miterlimit:10;stroke-dasharray:none"
   id="rect8" /><rect
   x="-106.8194"
   y="-171.16"
   rx="0"
   ry="0"
   width="144.35789"
   height="70.253395"
   style="fill:#dfe4ea;fill-rule:nonzero;stroke:none;stroke-width:3.89;stroke-linecap:butt;stroke-linejoin:miter;stroke-miterlimit:10;stroke-dasharray:none"
   id="rect10" /><path
   d="m 171.16,176.995 h -342.32 c -3.22481,0 -5.835,-2.61408 -5.835,-5.835 v -342.32 c 0,-3.22481 2.61019,-5.835 5.835,-5.835 H 90.73036 c 1.54433,0 3.03031,0.61462 4.12729,1.70771 l 80.42964,80.42575 c 1.09309,1.09309 1.70771,2.57907 1.70771,4.12729 V 171.16 c 0,3.22092 -2.61408,5.835 -5.835,5.835 z m -336.485,-11.67 h 330.65 V -88.31856 L 88.31467,-165.325 H -165.325 Z"
   style="fill:#000000;fill-rule:nonzero;stroke:none;stroke-width:3.89;stroke-linecap:butt;stroke-linejoin:miter;stroke-miterlimit:10;stroke-dasharray:none"
   stroke-linecap="round"
   id="path12" /><path
   d="m 106.83885,176.995 h -213.6777 c -3.22481,0 -5.835,-2.61408 -5.835,-5.835 V 12.54914 c 0,-3.22092 2.61019,-5.835 5.835,-5.835 h 213.6777 c 3.22092,0 5.835,2.61408 5.835,5.835 V 171.16 c 0,3.22092 -2.61408,5.835 -5.835,5.835 z m -207.8427,-11.67 h 202.0077 V 18.38414 h -202.0077 z"
   style="fill:#000000;fill-rule:nonzero;stroke:none;stroke-width:3.89;stroke-linecap:butt;stroke-linejoin:miter;stroke-miterlimit:10;stroke-dasharray:none"
   stroke-linecap="round"
   id="path14" /><path
   d="m 37.52294,-95.0716 h -144.36179 c -3.22481,0 -5.835,-2.61019 -5.835,-5.835 V -171.16 c 0,-3.22481 2.61019,-5.835 5.835,-5.835 H 37.52294 c 3.22092,0 5.835,2.61019 5.835,5.835 v 70.2534 c 0,3.22481 -2.61019,5.835 -5.835,5.835 z m -138.52679,-11.67 H 31.68794 v -58.5834 h -132.69179 z"
   style="fill:#000000;fill-rule:nonzero;stroke:none;stroke-width:3.89;stroke-linecap:butt;stroke-linejoin:miter;stroke-miterlimit:10;stroke-dasharray:none"
   stroke-linecap="round"
   id="path16" /><path
   d="m 171.16,176.995 h -342.32 c -3.22481,0 -5.835,-2.61408 -5.835,-5.835 v -342.32 c 0,-3.22481 2.61019,-5.835 5.835,-5.835 H 90.73036 c 1.54433,0 3.03031,0.61462 4.12729,1.70771 l 80.42964,80.42575 c 1.09309,1.09309 1.70771,2.57907 1.70771,4.12729 V 171.16 c 0,3.22092 -2.61408,5.835 -5.835,5.835 z m -336.485,-11.67 h 330.65 V -88.31856 L 88.31467,-165.325 H -165.325 Z"
   style="fill:#000000;fill-rule:nonzero;stroke:none;stroke-width:3.89;stroke-linecap:butt;stroke-linejoin:miter;stroke-miterlimit:10;stroke-dasharray:none"
   stroke-linecap="round"
   id="path18" /><path
   d="M 70.47902,58.78568 H -70.47902 c -3.22481,0 -5.835,-2.61408 -5.835,-5.835 0,-3.22092 2.61019,-5.835 5.835,-5.835 H 70.47902 c 3.22092,0 5.835,2.61408 5.835,5.835 0,3.22092 -2.61408,5.835 -5.835,5.835 z"
   style="fill:#000000;fill-rule:nonzero;stroke:none;stroke-width:3.89;stroke-linecap:butt;stroke-linejoin:miter;stroke-miterlimit:10;stroke-dasharray:none"
   stroke-linecap="round"
   id="path20" /><path
   d="M 70.47902,97.68568 H -70.47902 c -3.22481,0 -5.835,-2.61408 -5.835,-5.835 0,-3.22092 2.61019,-5.835 5.835,-5.835 H 70.47902 c 3.22092,0 5.835,2.61408 5.835,5.835 0,3.22092 -2.61408,5.835 -5.835,5.835 z"
   style="fill:#000000;fill-rule:nonzero;stroke:none;stroke-width:3.89;stroke-linecap:butt;stroke-linejoin:miter;stroke-miterlimit:10;stroke-dasharray:none"
   stroke-linecap="round"
   id="path22" /><path
   d="M 70.47902,136.58568 H -70.47902 c -3.22481,0 -5.835,-2.61408 -5.835,-5.835 0,-3.22092 2.61019,-5.835 5.835,-5.835 H 70.47902 c 3.22092,0 5.835,2.61408 5.835,5.835 0,3.22092 -2.61408,5.835 -5.835,5.835 z"
   style="fill:#000000;fill-rule:nonzero;stroke:none;stroke-width:3.89;stroke-linecap:butt;stroke-linejoin:miter;stroke-miterlimit:10;stroke-dasharray:none"
   stroke-linecap="round"
   id="path24" />
</g>
</svg>
