<?xml version="1.0" encoding="UTF-8" standalone="no"?>
<svg
   height="48"
   viewBox="0 0 48 48"
   width="48"
   version="1.1"
   id="svg6"
   sodipodi:docname="plugin.svg"
   inkscape:version="1.1.1 (3bf5ae0d25, 2021-09-20, custom)"
   xmlns:inkscape="http://www.inkscape.org/namespaces/inkscape"
   xmlns:sodipodi="http://sodipodi.sourceforge.net/DTD/sodipodi-0.dtd"
   xmlns="http://www.w3.org/2000/svg"
   xmlns:svg="http://www.w3.org/2000/svg">
  <defs
     id="defs10" />
  <sodipodi:namedview
     id="namedview8"
     pagecolor="#ffffff"
     bordercolor="#666666"
     borderopacity="1.0"
     inkscape:pageshadow="2"
     inkscape:pageopacity="0.0"
     inkscape:pagecheckerboard="0"
     showgrid="false"
     inkscape:zoom="8"
     inkscape:cx="-0.5625"
     inkscape:cy="35.875"
     inkscape:window-width="1920"
     inkscape:window-height="1015"
     inkscape:window-x="0"
     inkscape:window-y="0"
     inkscape:window-maximized="1"
     inkscape:current-layer="svg6" />
  <path
     d="M0 0h48v48H0z"
     fill="none"
     id="path2" />
  <g
     inkscape:groupmode="layer"
     id="layer1"
     inkscape:label="Layer 1" />
  <g
     inkscape:groupmode="layer"
     id="layer2"
     inkscape:label="Layer 2">
    <path
       id="path946"
       style="fill:#548fef;fill-opacity:1;stroke:none;stroke-width:451.607;paint-order:stroke fill markers"
       d="M 23.942938,0.05131885 A 24.095669,24.037483 0 0 0 11.054266,3.7935064 c -0.07981,0.051373 -0.142472,0.084241 -0.222656,0.1367187 A 24.095669,24.037483 0 0 0 8.4351245,5.7192876 C 8.2058675,5.9155627 7.9827305,6.1193711 7.7573905,6.3267095 A 24.095669,24.037483 0 0 0 6.2612965,7.8208501 C 5.9289515,8.1796402 5.6152235,8.538777 5.3140315,8.9048345 a 24.095669,24.037483 0 0 0 -1.330079,1.7734365 c -0.215428,0.32192 -0.42242,0.650234 -0.623046,0.984376 a 24.095669,24.037483 0 0 0 -0.949219,1.732421 c -0.267894,0.540822 -0.511637,1.09299 -0.738281,1.650391 a 24.095669,24.037483 0 0 0 -0.453125,1.208984 c -0.196952,0.570695 -0.37797899,1.144542 -0.52734399,1.720704 -0.07886,0.304192 -0.148105,0.610149 -0.214844,0.916015 a 24.095669,24.037483 0 0 0 -0.08008,0.371094 c -1.185351,5.872608 -0.155854,11.99296 2.91406199,17.103515 2.224462,3.703108 5.328902,6.666726 8.9726575,8.689454 a 24.095669,24.037483 0 0 0 0.230469,0.126953 c 1.907785,1.031745 3.960859,1.803129 6.111328,2.291015 a 24.095669,24.037483 0 0 0 0.597656,0.128907 c 0.799351,0.160256 1.611212,0.281248 2.433594,0.361328 a 24.095669,24.037483 0 0 0 0.625,0.04492 c 0.871357,0.04404 2.209608,0.05171 3.064453,0.01758 a 24.095669,24.037483 0 0 0 0.974609,-0.06836 c 0.68089,-0.06786 1.35555,-0.164381 2.021485,-0.287109 A 24.095669,24.037483 0 0 0 29.83942,47.34624 c 0.529548,-0.132636 1.055247,-0.279663 1.572266,-0.447265 0.0033,-0.0011 0.0064,-0.0028 0.0098,-0.0039 a 24.095669,24.037483 0 0 0 1.867187,-0.695312 c 0.457254,-0.192029 0.907203,-0.400796 1.351563,-0.621094 a 24.095669,24.037483 0 0 0 1.576172,-0.857422 c 0.518149,-0.307664 1.0257,-0.636595 1.521484,-0.984375 a 24.095669,24.037483 0 0 0 1.242188,-0.925781 c 0.227649,-0.182616 0.451961,-0.369001 0.673828,-0.560547 0.77253,-0.666954 2.140493,-2.051797 2.74414,-2.777344 0.115964,-0.13938 0.227366,-0.280693 0.339844,-0.421875 a 24.095669,24.037483 0 0 0 0.910156,-1.214843 c 0.329165,-0.468801 0.642804,-0.945629 0.935547,-1.431641 0.0079,-0.01304 0.01561,-0.02601 0.02344,-0.03906 a 24.095669,24.037483 0 0 0 0.908203,-1.658203 c 0.219933,-0.442699 0.421945,-0.893099 0.613281,-1.347656 a 24.095669,24.037483 0 0 0 0.691406,-1.849609 c 0.149259,-0.458641 0.282859,-0.923919 0.404297,-1.392578 a 24.095669,24.037483 0 0 0 0.398438,-1.826172 c 0.0872,-0.490599 0.16301,-0.984645 0.220703,-1.484375 a 24.095669,24.037483 0 0 0 0,-0.002 24.095669,24.037483 0 0 0 0.126953,-1.771485 c 3.25e-4,-0.01347 0.0016,-0.02157 0.002,-0.03516 0.0227,-1.000759 -6.24e-4,-2.312806 -0.0625,-3.015625 C 47.55501,17.954029 46.273766,14.24725 44.075751,10.897021 43.612221,10.190505 43.114385,9.5115714 42.585516,8.8638189 42.323142,8.542466 42.052391,8.2305834 41.774969,7.9243657 a 24.095669,24.037483 0 0 0 -0.0059,-0.00781 A 24.095669,24.037483 0 0 0 23.942938,0.05131885 Z M 22.345282,8.3989751 c 0.359741,0.00361 0.728188,0.044062 1.03125,0.1230469 0.788361,0.2054642 1.570804,0.6820875 1.964844,1.1953125 0.871593,1.1352155 0.80703,2.4076085 -0.205078,4.0781245 -0.413818,0.683027 -0.429365,0.7163 -0.429688,0.863281 -4.68e-4,0.211369 0.110721,0.41288 0.355469,0.640625 0.48899,0.455021 1.076872,0.632544 2.207031,0.669922 1.261491,0.04172 2.821336,-0.113349 4.128906,-0.410156 1.050046,-0.238351 1.694975,-0.183764 1.917969,0.160156 0.243709,0.375868 0.180739,0.875947 -0.246094,1.957031 -0.29687,0.751911 -0.454179,1.327499 -0.613281,2.253907 -0.13826,0.805077 -0.152025,2.326656 -0.02539,2.787109 0.201932,0.734236 0.489504,1.123875 0.875,1.181641 0.365622,0.05479 0.732056,-0.09085 1.53711,-0.613282 0.519725,-0.337274 0.862367,-0.518533 1.201172,-0.634765 0.297842,-0.102177 1.038508,-0.141442 1.361328,-0.07227 0.79943,0.17132 1.573277,0.873385 2.015625,1.830078 0.492195,1.064498 0.570676,2.428081 0.199218,3.447266 -0.523778,1.437115 -2.002243,2.29794 -3.427734,1.996094 -0.471706,-0.09988 -0.802461,-0.267922 -1.548828,-0.791016 -0.770414,-0.539949 -0.888451,-0.576688 -1.087891,-0.339844 -0.06822,0.08102 -0.129539,0.227585 -0.148437,0.353516 -0.01779,0.11855 -0.02073,0.99549 -0.0059,1.949219 0.03087,1.980383 0.07133,2.366634 0.365235,3.509765 0.179079,0.696521 0.196323,0.813545 0.197265,1.339844 9.19e-4,0.513659 -0.01101,0.601114 -0.107421,0.794922 -0.181721,0.365321 -0.439619,0.616236 -0.839844,0.816406 -0.593818,0.296993 -0.919863,0.351112 -2.099609,0.349609 -1.373469,-0.0018 -2.304429,-0.100174 -4.433594,-0.464843 -1.307861,-0.224001 -1.709526,-0.332055 -1.871094,-0.503907 -0.126526,-0.13458 -0.120821,-0.142337 0.347656,-0.667968 0.843498,-0.946403 1.223714,-1.838231 1.166016,-2.736328 -0.09204,-1.432497 -1.268512,-2.583869 -3.013672,-2.947266 -0.393476,-0.08193 -1.26404,-0.06734 -1.722656,0.02734 -1.378881,0.284678 -2.251188,0.9138 -2.558594,1.847656 -0.157244,0.477667 -0.145224,1.309906 0.02734,1.892578 0.227567,0.768379 0.700384,1.636233 1.173828,2.152344 0.131327,0.14316 0.238281,0.282526 0.238281,0.308594 0,0.08309 -0.542169,0.412817 -0.912109,0.554687 -0.498982,0.191358 -2.304364,0.640041 -2.804688,0.697266 -0.387483,0.04431 -1.270967,0.05371 -1.640625,0.01758 -1.892747,-0.184999 -3.051832,-0.726256 -3.36914,-1.570313 -0.237873,-0.632752 -0.177956,-1.133542 0.322265,-2.671875 0.498761,-1.533842 0.658481,-2.440682 0.658203,-3.734375 -2.34e-4,-1.161041 -0.175695,-2.152052 -0.544921,-3.074218 -0.172794,-0.43157 -0.194437,-0.571516 -0.0957,-0.609375 0.101782,-0.03903 0.484061,0.167378 0.882813,0.474609 0.440537,0.339417 1.267847,0.756569 1.685547,0.851562 0.761383,0.173159 1.392421,0.119094 1.996094,-0.173828 0.857974,-0.416316 1.592442,-1.336864 1.867187,-2.33789 0.115844,-0.422036 0.118012,-1.518932 0.0039,-1.931641 -0.19571,-0.707863 -0.463428,-1.201817 -0.912109,-1.683594 -0.509781,-0.547384 -1.038151,-0.82892 -1.6875,-0.898437 -0.698527,-0.07479 -1.252689,0.05431 -2.121094,0.492187 -1.248932,0.629748 -1.403122,0.405073 -1.894531,-2.761718 -0.183123,-1.180099 -0.197447,-1.538366 -0.07617,-1.927735 0.400013,-1.284283 1.894899,-1.632924 5.191406,-1.21289 2.173661,0.276962 3.17791,0.230704 3.431641,-0.15625 0.09701,-0.147941 0.04148,-0.270544 -0.419922,-0.949219 -0.198448,-0.291896 -0.467846,-0.691101 -0.599609,-0.886719 -0.337874,-0.501612 -0.49654,-0.991808 -0.501953,-1.558594 -0.0051,-0.528724 0.06332,-0.828298 0.296874,-1.316406 0.427075,-0.8925576 1.306507,-1.5991022 2.332032,-1.8730463 0.273989,-0.07319 0.626587,-0.1071281 0.986328,-0.1035156 z" />
  </g>
</svg>
