<?xml version="1.0" encoding="UTF-8" standalone="no"?>
<svg
   style="enable-background:new 0 0 50 50;"
   version="1.1"
   viewBox="0 0 50 50"
   xml:space="preserve"
   id="svg7"
   sodipodi:docname="repeat.svg"
   inkscape:version="1.1.1 (3bf5ae0d25, 2021-09-20)"
   xmlns:inkscape="http://www.inkscape.org/namespaces/inkscape"
   xmlns:sodipodi="http://sodipodi.sourceforge.net/DTD/sodipodi-0.dtd"
   xmlns="http://www.w3.org/2000/svg"
   xmlns:svg="http://www.w3.org/2000/svg"><defs
     id="defs11" /><sodipodi:namedview
     id="namedview9"
     pagecolor="#ffffff"
     bordercolor="#666666"
     borderopacity="1.0"
     inkscape:pageshadow="2"
     inkscape:pageopacity="0.0"
     inkscape:pagecheckerboard="0"
     showgrid="false"
     inkscape:zoom="16.58"
     inkscape:cx="25"
     inkscape:cy="24.969843"
     inkscape:window-width="1920"
     inkscape:window-height="1015"
     inkscape:window-x="0"
     inkscape:window-y="0"
     inkscape:window-maximized="1"
     inkscape:current-layer="Layer_1" /><g
     id="Layer_1"><path
       d="M25,1C18.068,1,11.53,3.993,7,9.126V3H5v10h10v-2H8.042C12.205,5.963,18.405,3,25,3c12.131,0,22,9.869,22,22   s-9.869,22-22,22S3,37.131,3,25c0-2.633,0.46-5.208,1.367-7.652l-1.875-0.696C1.502,19.32,1,22.128,1,25c0,13.233,10.767,24,24,24   s24-10.767,24-24S38.233,1,25,1z"
       id="path2"
       style="fill:#ff0000" /></g><g
     id="g5" /></svg>
