<?xml version="1.0" encoding="iso-8859-1"?>
<!-- Generator: Adobe Illustrator 19.0.0, SVG Export Plug-In . SVG Version: 6.00 Build 0)  -->
<svg version="1.1" id="Layer_1" xmlns="http://www.w3.org/2000/svg" xmlns:xlink="http://www.w3.org/1999/xlink" x="0px" y="0px"
	 viewBox="0 0 467.757 467.757" style="enable-background:new 0 0 467.757 467.757;" xml:space="preserve">
<g>
	<g>
		<g>
			<rect x="97" y="312.379" width="50" height="15"/>
			<rect x="97" y="342.379" width="100" height="15"/>
			<path d="M444.313,186.619V60.832L384.8,6.73H0v454.297h444.313V242.298l23.444-42.842L444.313,186.619z M134.809,21.73h204.649
				v124.776h-19.944V41.674h-84.889v104.833h-99.816V21.73z M304.513,56.674v89.833h-54.888V56.674H304.513z M74.904,21.73h44.904
				v124.776H74.904V21.73z M59.904,446.027H15V21.73h44.904v139.776h294.553V21.73h24.544l50.312,45.738v110.938l-27.218-14.903
				l-59.131,107.804H59.904V446.027z M275.357,446.027H74.904v-39.912h204.904L275.357,446.027z M281.482,391.115H74.904V286.307
				h259.832l-52.174,95.121L281.482,391.115z M339.458,446.027h-32.961l32.961-22.337V446.027z M336.76,407.399l-45.45,30.8
				l4.293-38.639l1.531-13.51l56.698-103.437l29.63-54.027l38.582,23.149l-81.662,149.063L336.76,407.399z M429.313,446.027h-74.856
				v0v-39.701l74.856-136.637V446.027z M429.255,238.568l-38.569-23.141l17.348-31.58l39.37,21.554L429.255,238.568z"/>
		</g>
	</g>
</g>
<g>
</g>
<g>
</g>
<g>
</g>
<g>
</g>
<g>
</g>
<g>
</g>
<g>
</g>
<g>
</g>
<g>
</g>
<g>
</g>
<g>
</g>
<g>
</g>
<g>
</g>
<g>
</g>
<g>
</g>
</svg>
