<?xml version="1.0" encoding="UTF-8" standalone="no"?>
<svg
   height="512px"
   id="Layer_1"
   style="enable-background:new 0 0 512 512;"
   version="1.1"
   viewBox="0 0 512 512"
   width="512px"
   xml:space="preserve"
   sodipodi:docname="trash.svg"
   inkscape:version="1.1.1 (3bf5ae0d25, 2021-09-20)"
   xmlns:inkscape="http://www.inkscape.org/namespaces/inkscape"
   xmlns:sodipodi="http://sodipodi.sourceforge.net/DTD/sodipodi-0.dtd"
   xmlns="http://www.w3.org/2000/svg"
   xmlns:svg="http://www.w3.org/2000/svg"><defs
     id="defs11" /><sodipodi:namedview
     id="namedview9"
     pagecolor="#ffffff"
     bordercolor="#666666"
     borderopacity="1.0"
     inkscape:pageshadow="2"
     inkscape:pageopacity="0.0"
     inkscape:pagecheckerboard="0"
     showgrid="false"
     inkscape:zoom="1.2304688"
     inkscape:cx="257.21904"
     inkscape:cy="255.59364"
     inkscape:window-width="1920"
     inkscape:window-height="1015"
     inkscape:window-x="0"
     inkscape:window-y="0"
     inkscape:window-maximized="1"
     inkscape:current-layer="Layer_1" /><g
     id="g6"
     style="fill:#ff0000"
     transform="matrix(1.2487761,0,0,1.3329104,-63.3606,-83.652764)"><path
       d="m 413.7,133.4 c -2.4,-9 -4,-14 -4,-14 -2.6,-9.3 -9.2,-9.3 -19,-10.9 l -53.1,-6.7 C 331,100.7 331,100.7 328.4,95 319.7,75.4 317,64 307.5,64 h -103 c -9.5,0 -12.1,11.4 -20.8,31.1 -2.6,5.6 -2.6,5.6 -9.2,6.8 l -53.2,6.7 c -9.7,1.6 -16.7,2.5 -19.3,11.8 0,0 -1.2,4.1 -3.7,13 -3.2,11.9 -4.5,10.6 6.5,10.6 h 302.4 c 11,0.1 9.8,1.3 6.5,-10.6 z"
       id="path2"
       style="fill:#ff0000" /><path
       d="M 379.4,176 H 132.6 c -16.6,0 -17.4,2.2 -16.4,14.7 l 18.7,242.6 c 1.6,12.3 2.8,14.8 17.5,14.8 h 207.2 c 14.7,0 15.9,-2.5 17.5,-14.8 l 18.7,-242.6 c 1,-12.6 0.2,-14.7 -16.4,-14.7 z"
       id="path4"
       style="fill:#ff0000" /></g></svg>
