<?xml version="1.0" ?><!DOCTYPE svg  PUBLIC '-//W3C//DTD SVG 1.1//EN'  'http://www.w3.org/Graphics/SVG/1.1/DTD/svg11.dtd'><svg enable-background="new 0 0 91 91" height="91px" id="Layer_1" version="1.1" viewBox="0 0 91 91" width="91px" xml:space="preserve" xmlns="http://www.w3.org/2000/svg" xmlns:xlink="http://www.w3.org/1999/xlink"><g><g><g><g><polygon fill="#FDE497" points="88.271,12.531 47.558,12.531 40.339,3.273 3.048,3.273 3.048,30.289 88.271,30.289     "/><path d="M88.271,32.802H3.048c-1.388,0-2.513-1.125-2.513-2.513V3.273c0-1.387,1.125-2.512,2.513-2.512h37.291      c0.774,0,1.505,0.356,1.981,0.967l6.464,8.289h39.487c1.388,0,2.513,1.125,2.513,2.514v17.758      C90.784,31.677,89.659,32.802,88.271,32.802z M5.561,27.776h80.198V15.043H47.558c-0.774,0-1.505-0.356-1.981-0.967      l-6.464-8.289H5.561V27.776z" fill="#454B53"/></g><g><path d="M3.049,30.287v56.328h76.478c4.805,0,8.745-3.939,8.745-8.746V30.287H3.049z" fill="#E6CBA5"/><path d="M79.526,89.129H3.049c-1.388,0-2.513-1.125-2.513-2.514V30.287c0-1.387,1.125-2.512,2.513-2.512h85.223      c1.388,0,2.513,1.125,2.513,2.512v47.582C90.784,84.077,85.733,89.129,79.526,89.129z M5.562,84.104h73.965      c3.437,0,6.232-2.797,6.232-6.234V32.801H5.562V84.104z" fill="#454B53"/></g></g></g></g></svg>