<svg enable-background="new 0 0 62.246 62.246" viewBox="0 0 62.246 62.246" xmlns="http://www.w3.org/2000/svg"><g fill="#2d527c"><path d="m57.548 45.107h-37.583c-2.595 0-4.699 2.105-4.699 4.701 0 2.594 2.104 4.699 4.699 4.699h37.583c2.594 0 4.698-2.105 4.698-4.699 0-2.595-2.104-4.701-4.698-4.701z"/><path d="m57.548 26.402h-37.583c-2.595 0-4.699 2.104-4.699 4.7 0 2.595 2.104 4.699 4.699 4.699h37.583c2.594 0 4.698-2.104 4.698-4.699s-2.104-4.7-4.698-4.7z"/><path d="m19.965 17.096h37.583c2.594 0 4.698-2.104 4.698-4.7s-2.104-4.699-4.698-4.699h-37.583c-2.595 0-4.699 2.104-4.699 4.699s2.104 4.7 4.699 4.7z"/><circle cx="4.77" cy="12.439" r="4.77"/><circle cx="4.77" cy="31.102" r="4.769"/><circle cx="4.77" cy="49.807" r="4.77"/></g></svg>