<?xml version="1.0" encoding="iso-8859-1"?>
<!-- Generator: Adobe Illustrator 19.0.0, SVG Export Plug-In . SVG Version: 6.00 Build 0)  -->
<svg version="1.1" id="Layer_1" xmlns="http://www.w3.org/2000/svg" xmlns:xlink="http://www.w3.org/1999/xlink" x="0px" y="0px"
	 viewBox="0 0 455 455" style="enable-background:new 0 0 455 455;" xml:space="preserve">
<g>
	<g>
		<g>
			<path d="M390.399,0H5v455h445V54.182L390.399,0z M140,15h205v125h-20V35h-85v105H140V15z M310,50v90h-55V50H310z M80,15h45v125
				H80V15z M345,440H80v-40h265V440z M345,385H80V280h265V385z M435,440h-75V265H65v175H20V15h45v140h295V15h24.601L435,60.818V440z
				"/>
			<rect x="102" y="306" width="50" height="15"/>
			<rect x="102" y="336" width="100" height="15"/>
		</g>
	</g>
</g>
<g>
</g>
<g>
</g>
<g>
</g>
<g>
</g>
<g>
</g>
<g>
</g>
<g>
</g>
<g>
</g>
<g>
</g>
<g>
</g>
<g>
</g>
<g>
</g>
<g>
</g>
<g>
</g>
<g>
</g>
</svg>
