<?xml version="1.0" encoding="UTF-8" standalone="no"?>
<svg
   width="16"
   height="16"
   fill="currentColor"
   class="bi bi-sort-down-alt"
   viewBox="0 0 16 16"
   version="1.1"
   id="svg4"
   sodipodi:docname="sort-down.svg"
   inkscape:version="1.2.1 (9c6d41e410, 2022-07-14, custom)"
   xmlns:inkscape="http://www.inkscape.org/namespaces/inkscape"
   xmlns:sodipodi="http://sodipodi.sourceforge.net/DTD/sodipodi-0.dtd"
   xmlns="http://www.w3.org/2000/svg"
   xmlns:svg="http://www.w3.org/2000/svg">
  <defs
     id="defs8" />
  <sodipodi:namedview
     id="namedview6"
     pagecolor="#ffffff"
     bordercolor="#666666"
     borderopacity="1.0"
     inkscape:showpageshadow="2"
     inkscape:pageopacity="0.0"
     inkscape:pagecheckerboard="0"
     inkscape:deskcolor="#d1d1d1"
     showgrid="false"
     inkscape:zoom="32"
     inkscape:cx="0.609375"
     inkscape:cy="11.0625"
     inkscape:window-width="1920"
     inkscape:window-height="1015"
     inkscape:window-x="0"
     inkscape:window-y="0"
     inkscape:window-maximized="1"
     inkscape:current-layer="svg4" />
  <path
     d="m 11.999369,3.5 c 0,-0.6666664 1,-0.6666664 1,0 v 8.793 l 1.146,-1.147 c 0.472,-0.472 1.18,0.236 0.708,0.708 l -2,1.999 -0.007,0.007 c -0.195402,0.190538 -0.507893,0.18786 -0.7,-0.006 l -2,-2 c -0.4719998,-0.471333 0.235,-1.179333 0.707,-0.708 l 1.146,1.147 z m -1.811522,0.487455 c 0.666666,-6.34e-4 0.666666,-1.000634 0,-1 l -8.5955427,0.00817 c -0.66666603,6.34e-4 -0.66666603,1.000634 0,1 z M 9.3109061,6.9795382 c 0.6666659,-9.74e-4 0.6666659,-1.0009743 0,-1.0000003 l -7.7274178,0.01129 c -0.66666588,9.74e-4 -0.66666586,1.0009743 0,1.0000003 z m 0.8905229,3.0241588 c 0.666667,-6.71e-4 0.641558,-0.9913009 -0.02511,-0.991303 l -8.5857082,-2.7e-5 c -0.66666639,-2.1e-6 -0.66666606,1.000671 0,1 z m -0.517609,2.49674 c 0,0.276142 -0.2238618,0.498481 -0.5,0.5 l -7.5886541,0.04173 c -0.66665612,0.0037 -0.66665626,-0.996333 0,-1 L 9.18382,12.000437 c 0.2761384,-0.0015 0.5,0.223858 0.5,0.5 z"
     id="path2"
     style="fill:#528def;fill-opacity:1"
     sodipodi:nodetypes="sscccccccccssssssssssssssssssssss" />
</svg>
